grf
version=1
nRows=12
nColumns=37
inDegrees=no
endheader
time	ground_force_1_vx	ground_force_1_vy	ground_force_1_vz	ground_force_1_px	ground_force_1_py	ground_force_1_pz	ground_moment_1_mx	ground_moment_1_my	ground_moment_1_mz	ground_force_2_vx	ground_force_2_vy	ground_force_2_vz	ground_force_2_px	ground_force_2_py	ground_force_2_pz	ground_moment_2_mx	ground_moment_2_my	ground_moment_2_mz	ground_force_3_vx	ground_force_3_vy	ground_force_3_vz	ground_force_3_px	ground_force_3_py	ground_force_3_pz	ground_moment_3_mx	ground_moment_3_my	ground_moment_3_mz	ground_force_4_vx	ground_force_4_vy	ground_force_4_vz	ground_force_4_px	ground_force_4_py	ground_force_4_pz	ground_moment_4_mx	ground_moment_4_my	ground_moment_4_mz
      0.00000000	      0.00000000	     -0.00000000	      0.00000000	      0.00000000	      0.00000000	      0.00000000	      0.00000000	      0.00000000	      0.00000000	    -11.14733315	      3.81190300	    -46.32922363	   -229.20218481	   -886.07852101	      0.00000000	      0.00000000	      0.00000000	    -63.50657533	     10.58806408	      9.60498240	   -710.85314941	   -302.93790494	   -827.67848048	      0.00000000	      0.00000000	      0.00000000	    171.81064657	      0.00000000	     -0.00000000	      0.00000000	      0.00000000	      0.00000000	      0.00000000	      0.00000000	      0.00000000	      0.00000000
      0.01000000	      0.00000000	     -0.00000000	      0.00000000	      0.00000000	      0.00000000	      0.00000000	      0.00000000	      0.00000000	      0.00000000	    -10.96364975	      3.60574603	    -48.26083374	   -232.68341247	   -910.67509016	      0.00000000	      0.00000000	      0.00000000	    372.18049175	     10.31785285	      9.43744951	   -711.78155518	   -302.48880659	   -827.53669527	      0.00000000	      0.00000000	      0.00000000	    132.45805582	      0.00000000	     -0.00000000	      0.00000000	      0.00000000	      0.00000000	      0.00000000	      0.00000000	      0.00000000	      0.00000000
      0.02000000	      0.00000000	     -0.00000000	      0.00000000	      0.00000000	      0.00000000	      0.00000000	      0.00000000	      0.00000000	      0.00000000	    -10.97799969	      3.39436126	    -45.56464386	   -224.39295013	   -890.22778504	      0.00000000	      0.00000000	      0.00000000	     73.96997120	     10.37307152	      9.17776875	   -712.95227051	   -302.49543032	   -826.53357693	      0.00000000	      0.00000000	      0.00000000	     48.19554274	      0.00000000	     -0.00000000	      0.00000000	      0.00000000	      0.00000000	      0.00000000	      0.00000000	      0.00000000	      0.00000000
      0.03000000	      0.00000000	     -0.00000000	      0.00000000	      0.00000000	      0.00000000	      0.00000000	      0.00000000	      0.00000000	      0.00000000	    -10.97671604	      3.63970304	    -45.78297043	   -225.69166831	   -898.65803966	      0.00000000	      0.00000000	      0.00000000	    112.02972555	      9.99445327	      9.11926087	   -711.52172852	   -302.42348409	   -827.01325778	      0.00000000	      0.00000000	      0.00000000	    107.54752052	      0.00000000	     -0.00000000	      0.00000000	      0.00000000	      0.00000000	      0.00000000	      0.00000000	      0.00000000	      0.00000000
      0.04000000	      0.00000000	     -0.00000000	      0.00000000	      0.00000000	      0.00000000	      0.00000000	      0.00000000	      0.00000000	      0.00000000	    -11.27207470	      3.38238192	    -44.63782501	   -224.43208200	   -890.79520709	      0.00000000	      0.00000000	     -0.00000000	   -122.53062366	      9.78497200	      8.76597414	   -711.73645020	   -302.12771204	   -826.31020203	      0.00000000	      0.00000000	      0.00000000	    100.17981198	      0.00000000	     -0.00000000	      0.00000000	      0.00000000	      0.00000000	      0.00000000	      0.00000000	      0.00000000	      0.00000000
      0.05000000	      0.00000000	     -0.00000000	      0.00000000	      0.00000000	      0.00000000	      0.00000000	      0.00000000	      0.00000000	      0.00000000	    -10.57273865	      3.23723364	    -43.74616241	   -221.98612009	   -883.92313692	      0.00000000	      0.00000000	      0.00000000	     60.01152716	      9.65987474	      8.86997806	   -711.97735596	   -301.71304242	   -825.80693951	      0.00000000	      0.00000000	      0.00000000	    117.98428507	      0.00000000	     -0.00000000	      0.00000000	      0.00000000	      0.00000000	      0.00000000	      0.00000000	      0.00000000	      0.00000000
      0.06000000	      0.00000000	     -0.00000000	      0.00000000	      0.00000000	      0.00000000	      0.00000000	      0.00000000	      0.00000000	      0.00000000	    -10.45567131	      3.22808433	    -43.64618683	   -224.20395145	   -893.52684060	      0.00000000	      0.00000000	      0.00000000	    152.17843268	      9.27741511	      9.03128924	   -711.90979004	   -301.20323737	   -825.05910673	      0.00000000	      0.00000000	      0.00000000	     19.78263329	      0.00000000	     -0.00000000	      0.00000000	      0.00000000	      0.00000000	      0.00000000	      0.00000000	      0.00000000	      0.00000000
      0.07000000	      0.00000000	     -0.00000000	      0.00000000	      0.00000000	      0.00000000	      0.00000000	      0.00000000	      0.00000000	      0.00000000	    -10.46400833	      2.96784878	    -42.98220062	   -226.13645125	   -901.92416632	      0.00000000	      0.00000000	      0.00000000	    148.04200535	      9.20039545	      9.38063732	   -711.83349609	   -300.97303400	   -824.81974563	      0.00000000	      0.00000000	     -0.00000000	   -146.52431282	      0.00000000	     -0.00000000	      0.00000000	      0.00000000	      0.00000000	      0.00000000	      0.00000000	      0.00000000	      0.00000000
      0.08000000	      0.00000000	     -0.00000000	      0.00000000	      0.00000000	      0.00000000	      0.00000000	      0.00000000	      0.00000000	      0.00000000	    -10.34454060	      3.11596656	    -42.54374313	   -222.91077218	   -900.93790481	      0.00000000	      0.00000000	      0.00000000	    132.71581641	      8.74170958	      9.46881981	   -712.96746826	   -300.65233946	   -824.22982020	      0.00000000	      0.00000000	      0.00000000	   -228.40412827	      0.00000000	     -0.00000000	      0.00000000	      0.00000000	      0.00000000	      0.00000000	      0.00000000	      0.00000000	      0.00000000
      0.09000000	      0.00000000	     -0.00000000	      0.00000000	      0.00000000	      0.00000000	      0.00000000	      0.00000000	      0.00000000	      0.00000000	     -9.99174690	      2.72981119	    -40.98235321	   -224.59016699	   -897.51770754	      0.00000000	      0.00000000	      0.00000000	    121.84439973	      8.72366125	      8.87997837	   -714.65551758	   -300.23434679	   -823.08534452	      0.00000000	      0.00000000	     -0.00000000	   -413.75811203	      0.00000000	     -0.00000000	      0.00000000	      0.00000000	      0.00000000	      0.00000000	      0.00000000	      0.00000000	      0.00000000
      0.10000000	      0.00000000	     -0.00000000	      0.00000000	      0.00000000	      0.00000000	      0.00000000	      0.00000000	      0.00000000	      0.00000000	     -9.94329643	      2.29084015	    -40.05792999	   -221.92366364	   -909.87694233	      0.00000000	      0.00000000	      0.00000000	    233.62881128	      7.98366051	      8.78797461	   -716.95294189	   -299.92109649	   -821.39623739	      0.00000000	      0.00000000	     -0.00000000	   -291.89766022	      0.00000000	     -0.00000000	      0.00000000	      0.00000000	      0.00000000	      0.00000000	      0.00000000	      0.00000000	      0.00000000
      0.11000000	      0.00000000	     -0.00000000	      0.00000000	      0.00000000	      0.00000000	      0.00000000	      0.00000000	      0.00000000	      0.00000000	     -9.38205624	      2.17452192	    -38.15798187	   -218.17180762	   -905.79104091	      0.00000000	      0.00000000	      0.00000000	    371.91201765	      7.44810557	      8.08653099	   -716.72943115	   -299.60406402	   -821.52762214	      0.00000000	      0.00000000	     -0.00000000	   -422.29422603	      0.00000000	     -0.00000000	      0.00000000	      0.00000000	      0.00000000	      0.00000000	      0.00000000	      0.00000000	      0.00000000
